# MagicaVoxel @ Ephtracy

# group
o 

# material
mtllib block.mtl
usemtl palette

# normals
vn -1 0 0
vn 1 0 0
vn 0 0 1
vn 0 0 -1
vn 0 -1 0
vn 0 1 0

# texcoords
vt 0.728516 0.5
vt 0.841797 0.5
vt 0.880859 0.5
vt 0.986328 0.5

# verts
v -12.8 0 2
v -12.8 0 -2
v -12.8 4 2
v -12.8 4 -2
v -10 0.7 1.8
v -10 0.7 0.9
v -10 2.2 1.8
v -10 2.2 0.9
v -10 3.9 1.8
v -10 3.9 0.9
v 11.8 0.7 1.5
v 11.8 0.7 0.9
v 11.8 0.8 1.2
v 11.8 0.8 0.9
v 11.8 0.9 1.5
v 11.8 0.9 1.2
v 12.7 0.7 1.8
v 12.7 0.7 1.5
v 12.7 0.9 1.7
v 12.7 0.9 1.5
v 12.7 1.1 1.8
v 12.7 1.1 1.7
v -12.5 2.8 1.8
v -12.5 2.8 0.9
v -12.5 2.9 1.8
v -12.5 2.9 0.9
v -11.9 0.7 1.8
v -11.9 0.7 0.9
v -11.9 2.1 1.8
v -11.9 2.1 0.9
v -11.9 2.2 1.8
v -11.9 2.2 0.9
v -11.9 2.8 1.8
v -11.9 2.8 0.9
v -10.4 2.9 1.8
v -10.4 2.9 0.9
v -10.4 3.9 1.8
v -10.4 3.9 0.9
v 10 0.7 1.8
v 10 0.7 0.9
v 10 0.8 1.2
v 10 0.8 0.9
v 10 0.9 1.7
v 10 0.9 1.2
v 10 1.1 1.8
v 10 1.1 1.7
v 12.8 0 2
v 12.8 0 -2
v 12.8 4 2
v 12.8 4 -2
v -12.8 0 2
v -12.8 4 2
v -9.7 0 2
v -9.7 4 2
v -9.6 0 2
v -9.6 4 2
v -6.3 0 2
v -6.3 4 2
v -6.2 0 2
v -6.2 4 2
v -3.2 0 2
v -3.2 4 2
v -3.1 0 2
v -3.1 4 2
v 0.2 0 2
v 0.2 4 2
v 0.299999 0 2
v 0.299999 4 2
v 3.7 0 2
v 3.7 4 2
v 3.8 0 2
v 3.8 4 2
v 7.1 0 2
v 7.1 4 2
v 7.2 0 2
v 7.2 4 2
v 10.4 0 2
v 10.4 4 2
v 10.5 0 2
v 10.5 4 2
v 12.8 0 2
v 12.8 4 2
v 10 0.9 1.7
v 10 1.1 1.7
v 10.4 0.9 1.7
v 10.4 1.1 1.7
v 12.7 0.9 1.7
v 12.7 1.1 1.7
v 11.8 0.7 1.5
v 11.8 0.9 1.5
v 12.7 0.7 1.5
v 12.7 0.9 1.5
v 10 0.8 1.2
v 10 0.9 1.2
v 10.4 0.8 1.2
v 10.4 0.9 1.2
v 11.8 0.8 1.2
v 11.8 0.9 1.2
v -12.5 2.8 0.9
v -12.5 2.9 0.9
v -11.9 0.7 0.9
v -11.9 2.1 0.9
v -11.9 2.2 0.9
v -11.9 2.8 0.9
v -11.7 0.7 0.9
v -11.7 2.1 0.9
v -10.4 2.9 0.9
v -10.4 3.9 0.9
v -10 0.7 0.9
v -10 2.2 0.9
v -10 3.9 0.9
v 10 0.7 0.9
v 10 0.8 0.9
v 10.4 0.7 0.9
v 10.4 0.8 0.9
v 11.8 0.7 0.9
v 11.8 0.8 0.9
v -12.5 2.8 1.8
v -12.5 2.9 1.8
v -11.9 0.7 1.8
v -11.9 2.1 1.8
v -11.9 2.2 1.8
v -11.9 2.8 1.8
v -11.7 0.7 1.8
v -11.7 2.1 1.8
v -10.4 2.9 1.8
v -10.4 3.9 1.8
v -10 0.7 1.8
v -10 2.2 1.8
v -10 3.9 1.8
v 10 0.7 1.8
v 10 1.1 1.8
v 10.4 0.7 1.8
v 10.4 1.1 1.8
v 12.7 0.7 1.8
v 12.7 1.1 1.8
v -12.8 0 -2
v -12.8 4 -2
v -9.7 0 -2
v -9.7 4 -2
v -9.6 0 -2
v -9.6 4 -2
v -6.3 0 -2
v -6.3 4 -2
v -6.2 0 -2
v -6.2 4 -2
v -3.2 0 -2
v -3.2 4 -2
v -3.1 0 -2
v -3.1 4 -2
v 0.2 0 -2
v 0.2 4 -2
v 0.299999 0 -2
v 0.299999 4 -2
v 3.7 0 -2
v 3.7 4 -2
v 3.8 0 -2
v 3.8 4 -2
v 7.1 0 -2
v 7.1 4 -2
v 7.2 0 -2
v 7.2 4 -2
v 10.4 0 -2
v 10.4 4 -2
v 10.5 0 -2
v 10.5 4 -2
v 12.8 0 -2
v 12.8 4 -2
v -12.8 0 2
v -9.7 0 2
v -9.6 0 2
v -6.3 0 2
v -6.2 0 2
v -3.2 0 2
v -3.1 0 2
v 0.2 0 2
v 0.299999 0 2
v 3.7 0 2
v 3.8 0 2
v 7.1 0 2
v 7.2 0 2
v 10.4 0 2
v 10.5 0 2
v 12.8 0 2
v -11.7 0 1.9
v -9.7 0 1.9
v -9.6 0 1.9
v -6.3 0 1.9
v -6.2 0 1.9
v -3.2 0 1.9
v -3.1 0 1.9
v 0.2 0 1.9
v 0.299999 0 1.9
v 3.7 0 1.9
v 3.8 0 1.9
v 7.1 0 1.9
v 7.2 0 1.9
v 10.4 0 1.8
v 10.5 0 1.8
v 10.6 0 1.8
v 10.5 0 1.6
v 10.6 0 1.6
v 0.599999 0 -1.8
v 3.7 0 -1.8
v -11.7 0 -1.9
v -9.7 0 -1.9
v -9.6 0 -1.9
v -6.3 0 -1.9
v -6.2 0 -1.9
v -3.2 0 -1.9
v -3.1 0 -1.9
v 0.2 0 -1.9
v 0.299999 0 -1.9
v 0.599999 0 -1.9
v 3.7 0 -1.9
v 3.8 0 -1.9
v 7.1 0 -1.9
v 7.2 0 -1.9
v 10.4 0 -1.9
v 10.5 0 -1.9
v -12.8 0 -2
v -9.7 0 -2
v -9.6 0 -2
v -6.3 0 -2
v -6.2 0 -2
v -3.2 0 -2
v -3.1 0 -2
v 0.2 0 -2
v 0.299999 0 -2
v 3.7 0 -2
v 3.8 0 -2
v 7.1 0 -2
v 7.2 0 -2
v 10.4 0 -2
v 10.5 0 -2
v 12.8 0 -2
v 10 0.8 1.2
v 10.4 0.8 1.2
v 11.8 0.8 1.2
v 10 0.8 0.9
v 10.4 0.8 0.9
v 11.8 0.8 0.9
v 10 0.9 1.7
v 10.4 0.9 1.7
v 12.7 0.9 1.7
v 11.8 0.9 1.5
v 12.7 0.9 1.5
v 10 0.9 1.2
v 10.4 0.9 1.2
v 11.8 0.9 1.2
v 10 1.1 1.8
v 10.4 1.1 1.8
v 12.7 1.1 1.8
v 10 1.1 1.7
v 10.4 1.1 1.7
v 12.7 1.1 1.7
v -12.5 2.9 1.8
v -10.4 2.9 1.8
v -12.5 2.9 0.9
v -10.4 2.9 0.9
v -10.4 3.9 1.8
v -10 3.9 1.8
v -10.4 3.9 0.9
v -10 3.9 0.9
v -11.9 0.7 1.8
v -11.7 0.7 1.8
v -10 0.7 1.8
v 10 0.7 1.8
v 10.4 0.7 1.8
v 12.7 0.7 1.8
v 11.8 0.7 1.5
v 12.7 0.7 1.5
v -11.9 0.7 0.9
v -11.7 0.7 0.9
v -10 0.7 0.9
v 10 0.7 0.9
v 10.4 0.7 0.9
v 11.8 0.7 0.9
v -12.5 2.8 1.8
v -11.9 2.8 1.8
v -12.5 2.8 0.9
v -11.9 2.8 0.9
v -12.8 4 2
v -9.7 4 2
v -9.6 4 2
v -6.3 4 2
v -6.2 4 2
v -3.2 4 2
v -3.1 4 2
v 0.2 4 2
v 0.299999 4 2
v 3.7 4 2
v 3.8 4 2
v 7.1 4 2
v 7.2 4 2
v 10.4 4 2
v 10.5 4 2
v 12.8 4 2
v -12.8 4 -2
v -9.7 4 -2
v -9.6 4 -2
v -6.3 4 -2
v -6.2 4 -2
v -3.2 4 -2
v -3.1 4 -2
v 0.2 4 -2
v 0.299999 4 -2
v 3.7 4 -2
v 3.8 4 -2
v 7.1 4 -2
v 7.2 4 -2
v 10.4 4 -2
v 10.5 4 -2
v 12.8 4 -2

# faces
f 3/1/1 2/1/1 1/1/1
f 4/1/1 2/1/1 3/1/1
f 7/2/1 6/2/1 5/2/1
f 8/2/1 6/2/1 7/2/1
f 9/1/1 8/1/1 7/1/1
f 10/1/1 8/1/1 9/1/1
f 13/2/1 12/2/1 11/2/1
f 14/2/1 12/2/1 13/2/1
f 15/2/1 13/2/1 11/2/1
f 16/2/1 13/2/1 15/2/1
f 19/2/1 18/2/1 17/2/1
f 20/2/1 18/2/1 19/2/1
f 21/2/1 19/2/1 17/2/1
f 22/2/1 19/2/1 21/2/1
f 23/1/2 24/1/2 25/1/2
f 25/1/2 24/1/2 26/1/2
f 27/1/2 28/1/2 29/1/2
f 29/1/2 28/1/2 30/1/2
f 29/2/2 30/2/2 31/2/2
f 31/2/2 30/2/2 32/2/2
f 31/1/2 32/1/2 33/1/2
f 33/1/2 32/1/2 34/1/2
f 35/1/2 36/1/2 37/1/2
f 37/1/2 36/1/2 38/1/2
f 39/3/2 40/3/2 41/3/2
f 41/3/2 40/3/2 42/3/2
f 39/3/2 41/3/2 43/3/2
f 43/3/2 41/3/2 44/3/2
f 39/3/2 43/3/2 45/3/2
f 45/3/2 43/3/2 46/3/2
f 47/2/2 48/2/2 49/2/2
f 49/2/2 48/2/2 50/2/2
f 53/1/3 52/1/3 51/1/3
f 54/1/3 52/1/3 53/1/3
f 55/4/3 54/4/3 53/4/3
f 56/4/3 54/4/3 55/4/3
f 57/2/3 56/2/3 55/2/3
f 58/2/3 56/2/3 57/2/3
f 59/4/3 58/4/3 57/4/3
f 60/4/3 58/4/3 59/4/3
f 61/3/3 60/3/3 59/3/3
f 62/3/3 60/3/3 61/3/3
f 63/4/3 62/4/3 61/4/3
f 64/4/3 62/4/3 63/4/3
f 65/2/3 64/2/3 63/2/3
f 66/2/3 64/2/3 65/2/3
f 67/4/3 66/4/3 65/4/3
f 68/4/3 66/4/3 67/4/3
f 69/1/3 68/1/3 67/1/3
f 70/1/3 68/1/3 69/1/3
f 71/4/3 70/4/3 69/4/3
f 72/4/3 70/4/3 71/4/3
f 73/2/3 72/2/3 71/2/3
f 74/2/3 72/2/3 73/2/3
f 75/4/3 74/4/3 73/4/3
f 76/4/3 74/4/3 75/4/3
f 77/3/3 76/3/3 75/3/3
f 78/3/3 76/3/3 77/3/3
f 79/4/3 78/4/3 77/4/3
f 80/4/3 78/4/3 79/4/3
f 81/2/3 80/2/3 79/2/3
f 82/2/3 80/2/3 81/2/3
f 85/3/3 84/3/3 83/3/3
f 86/3/3 84/3/3 85/3/3
f 87/2/3 86/2/3 85/2/3
f 88/2/3 86/2/3 87/2/3
f 91/2/3 90/2/3 89/2/3
f 92/2/3 90/2/3 91/2/3
f 95/3/3 94/3/3 93/3/3
f 96/3/3 94/3/3 95/3/3
f 97/2/3 96/2/3 95/2/3
f 98/2/3 96/2/3 97/2/3
f 104/1/3 100/1/3 99/1/3
f 105/1/3 102/1/3 101/1/3
f 106/2/3 103/2/3 102/2/3
f 106/1/3 102/1/3 105/1/3
f 107/1/3 104/1/3 103/1/3
f 107/1/3 100/1/3 104/1/3
f 109/2/3 106/2/3 105/2/3
f 110/2/3 103/2/3 106/2/3
f 110/2/3 106/2/3 109/2/3
f 110/1/3 108/1/3 107/1/3
f 110/1/3 107/1/3 103/1/3
f 111/1/3 108/1/3 110/1/3
f 114/3/3 113/3/3 112/3/3
f 115/3/3 113/3/3 114/3/3
f 116/2/3 115/2/3 114/2/3
f 117/2/3 115/2/3 116/2/3
f 118/1/4 119/1/4 123/1/4
f 120/1/4 121/1/4 124/1/4
f 121/2/4 122/2/4 125/2/4
f 124/1/4 121/1/4 125/1/4
f 122/1/4 123/1/4 126/1/4
f 123/1/4 119/1/4 126/1/4
f 124/2/4 125/2/4 128/2/4
f 125/2/4 122/2/4 129/2/4
f 128/2/4 125/2/4 129/2/4
f 126/1/4 127/1/4 129/1/4
f 122/1/4 126/1/4 129/1/4
f 129/1/4 127/1/4 130/1/4
f 131/3/4 132/3/4 133/3/4
f 133/3/4 132/3/4 134/3/4
f 133/2/4 134/2/4 135/2/4
f 135/2/4 134/2/4 136/2/4
f 137/1/4 138/1/4 139/1/4
f 139/1/4 138/1/4 140/1/4
f 139/4/4 140/4/4 141/4/4
f 141/4/4 140/4/4 142/4/4
f 141/2/4 142/2/4 143/2/4
f 143/2/4 142/2/4 144/2/4
f 143/4/4 144/4/4 145/4/4
f 145/4/4 144/4/4 146/4/4
f 145/3/4 146/3/4 147/3/4
f 147/3/4 146/3/4 148/3/4
f 147/4/4 148/4/4 149/4/4
f 149/4/4 148/4/4 150/4/4
f 149/2/4 150/2/4 151/2/4
f 151/2/4 150/2/4 152/2/4
f 151/4/4 152/4/4 153/4/4
f 153/4/4 152/4/4 154/4/4
f 153/1/4 154/1/4 155/1/4
f 155/1/4 154/1/4 156/1/4
f 155/4/4 156/4/4 157/4/4
f 157/4/4 156/4/4 158/4/4
f 157/2/4 158/2/4 159/2/4
f 159/2/4 158/2/4 160/2/4
f 159/4/4 160/4/4 161/4/4
f 161/4/4 160/4/4 162/4/4
f 161/3/4 162/3/4 163/3/4
f 163/3/4 162/3/4 164/3/4
f 163/4/4 164/4/4 165/4/4
f 165/4/4 164/4/4 166/4/4
f 165/2/4 166/2/4 167/2/4
f 167/2/4 166/2/4 168/2/4
f 185/1/5 170/1/5 169/1/5
f 186/4/5 171/4/5 170/4/5
f 186/1/5 170/1/5 185/1/5
f 187/2/5 172/2/5 171/2/5
f 187/4/5 171/4/5 186/4/5
f 188/4/5 173/4/5 172/4/5
f 188/2/5 172/2/5 187/2/5
f 189/3/5 174/3/5 173/3/5
f 189/4/5 173/4/5 188/4/5
f 190/4/5 175/4/5 174/4/5
f 190/3/5 174/3/5 189/3/5
f 191/2/5 176/2/5 175/2/5
f 191/4/5 175/4/5 190/4/5
f 192/4/5 177/4/5 176/4/5
f 192/2/5 176/2/5 191/2/5
f 193/1/5 178/1/5 177/1/5
f 193/4/5 177/4/5 192/4/5
f 194/4/5 179/4/5 178/4/5
f 194/1/5 178/1/5 193/1/5
f 195/2/5 180/2/5 179/2/5
f 195/4/5 179/4/5 194/4/5
f 196/4/5 181/4/5 180/4/5
f 196/2/5 180/2/5 195/2/5
f 197/3/5 182/3/5 181/3/5
f 197/4/5 181/4/5 196/4/5
f 198/4/5 183/4/5 182/4/5
f 198/3/5 182/3/5 197/3/5
f 199/2/5 184/2/5 183/2/5
f 199/4/5 183/4/5 198/4/5
f 200/2/5 184/2/5 199/2/5
f 201/2/5 199/2/5 198/2/5
f 201/4/5 200/4/5 199/4/5
f 202/2/5 184/2/5 200/2/5
f 202/4/5 200/4/5 201/4/5
f 203/2/5 186/2/5 185/2/5
f 203/2/5 187/2/5 186/2/5
f 203/2/5 188/2/5 187/2/5
f 203/2/5 189/2/5 188/2/5
f 203/2/5 197/2/5 196/2/5
f 203/2/5 196/2/5 195/2/5
f 203/2/5 195/2/5 194/2/5
f 203/2/5 194/2/5 193/2/5
f 203/2/5 193/2/5 192/2/5
f 203/2/5 192/2/5 191/2/5
f 203/2/5 191/2/5 190/2/5
f 203/2/5 190/2/5 189/2/5
f 204/2/5 197/2/5 203/2/5
f 205/1/5 185/1/5 169/1/5
f 205/2/5 203/2/5 185/2/5
f 206/2/5 203/2/5 205/2/5
f 207/2/5 203/2/5 206/2/5
f 208/2/5 203/2/5 207/2/5
f 209/2/5 203/2/5 208/2/5
f 210/2/5 203/2/5 209/2/5
f 211/2/5 203/2/5 210/2/5
f 212/2/5 203/2/5 211/2/5
f 213/2/5 203/2/5 212/2/5
f 214/1/5 204/1/5 203/1/5
f 214/2/5 203/2/5 213/2/5
f 215/2/5 197/2/5 204/2/5
f 215/1/5 204/1/5 214/1/5
f 216/2/5 197/2/5 215/2/5
f 217/2/5 197/2/5 216/2/5
f 218/3/5 198/3/5 197/3/5
f 218/2/5 197/2/5 217/2/5
f 219/2/5 202/2/5 201/2/5
f 219/3/5 198/3/5 218/3/5
f 219/2/5 201/2/5 198/2/5
f 220/2/5 202/2/5 219/2/5
f 221/1/5 205/1/5 169/1/5
f 221/1/5 206/1/5 205/1/5
f 222/4/5 207/4/5 206/4/5
f 222/1/5 206/1/5 221/1/5
f 223/2/5 208/2/5 207/2/5
f 223/4/5 207/4/5 222/4/5
f 224/4/5 209/4/5 208/4/5
f 224/2/5 208/2/5 223/2/5
f 225/3/5 210/3/5 209/3/5
f 225/4/5 209/4/5 224/4/5
f 226/4/5 211/4/5 210/4/5
f 226/3/5 210/3/5 225/3/5
f 227/2/5 212/2/5 211/2/5
f 227/4/5 211/4/5 226/4/5
f 228/4/5 213/4/5 212/4/5
f 228/2/5 212/2/5 227/2/5
f 229/1/5 214/1/5 213/1/5
f 229/4/5 213/4/5 228/4/5
f 229/1/5 215/1/5 214/1/5
f 230/4/5 216/4/5 215/4/5
f 230/1/5 215/1/5 229/1/5
f 231/2/5 217/2/5 216/2/5
f 231/4/5 216/4/5 230/4/5
f 232/4/5 218/4/5 217/4/5
f 232/2/5 217/2/5 231/2/5
f 233/3/5 219/3/5 218/3/5
f 233/4/5 218/4/5 232/4/5
f 234/4/5 220/4/5 219/4/5
f 234/3/5 219/3/5 233/3/5
f 235/2/5 202/2/5 220/2/5
f 235/4/5 220/4/5 234/4/5
f 236/2/5 184/2/5 202/2/5
f 236/2/5 202/2/5 235/2/5
f 240/3/5 238/3/5 237/3/5
f 241/2/5 239/2/5 238/2/5
f 241/3/5 238/3/5 240/3/5
f 242/2/5 239/2/5 241/2/5
f 246/2/5 245/2/5 244/2/5
f 247/2/5 245/2/5 246/2/5
f 248/3/5 244/3/5 243/3/5
f 249/2/5 246/2/5 244/2/5
f 249/3/5 244/3/5 248/3/5
f 250/2/5 246/2/5 249/2/5
f 254/3/5 252/3/5 251/3/5
f 255/2/5 253/2/5 252/2/5
f 255/3/5 252/3/5 254/3/5
f 256/2/5 253/2/5 255/2/5
f 259/1/5 258/1/5 257/1/5
f 260/1/5 258/1/5 259/1/5
f 263/1/5 262/1/5 261/1/5
f 264/1/5 262/1/5 263/1/5
f 269/2/6 270/2/6 271/2/6
f 271/2/6 270/2/6 272/2/6
f 265/1/6 266/1/6 273/1/6
f 266/2/6 267/2/6 274/2/6
f 273/1/6 266/1/6 274/1/6
f 274/2/6 267/2/6 275/2/6
f 268/3/6 269/3/6 276/3/6
f 269/2/6 271/2/6 277/2/6
f 276/3/6 269/3/6 277/3/6
f 277/2/6 271/2/6 278/2/6
f 279/1/6 280/1/6 281/1/6
f 281/1/6 280/1/6 282/1/6
f 283/1/6 284/1/6 299/1/6
f 284/4/6 285/4/6 300/4/6
f 299/1/6 284/1/6 300/1/6
f 285/2/6 286/2/6 301/2/6
f 300/4/6 285/4/6 301/4/6
f 286/4/6 287/4/6 302/4/6
f 301/2/6 286/2/6 302/2/6
f 287/3/6 288/3/6 303/3/6
f 302/4/6 287/4/6 303/4/6
f 288/4/6 289/4/6 304/4/6
f 303/3/6 288/3/6 304/3/6
f 289/2/6 290/2/6 305/2/6
f 304/4/6 289/4/6 305/4/6
f 290/4/6 291/4/6 306/4/6
f 305/2/6 290/2/6 306/2/6
f 291/1/6 292/1/6 307/1/6
f 306/4/6 291/4/6 307/4/6
f 292/4/6 293/4/6 308/4/6
f 307/1/6 292/1/6 308/1/6
f 293/2/6 294/2/6 309/2/6
f 308/4/6 293/4/6 309/4/6
f 294/4/6 295/4/6 310/4/6
f 309/2/6 294/2/6 310/2/6
f 295/3/6 296/3/6 311/3/6
f 310/4/6 295/4/6 311/4/6
f 296/4/6 297/4/6 312/4/6
f 311/3/6 296/3/6 312/3/6
f 297/2/6 298/2/6 313/2/6
f 312/4/6 297/4/6 313/4/6
f 313/2/6 298/2/6 314/2/6
