# Blender v3.1.2 OBJ File: ''
# www.blender.org
mtllib failblock.mtl
o Cube_Cube.001
v 2.456267 -2.263871 1.000000
v -2.491428 -2.225116 1.000000
v 2.456267 -2.263871 -1.000000
v -2.491428 -2.225116 -1.000000
v 2.491428 2.225116 1.000000
v -2.456267 2.263871 1.000000
v 2.491428 2.225116 -1.000000
v -2.456267 2.263871 -1.000000
vt 0.781434 0.382848
vt 0.936317 0.367189
vt 0.940737 0.530497
vt 0.780966 0.523816
vt 0.887115 0.024428
vt 0.986795 0.022033
vt 0.998615 0.648641
vt 0.857831 0.650668
vt 0.397264 0.747834
vt 0.560579 0.746659
vt 0.567079 0.877374
vt 0.396047 0.880271
vt 0.015832 0.020464
vt 0.994148 0.014904
vt 0.987591 0.978946
vt 0.008476 0.975851
vt 0.022415 0.483536
vt 0.182493 0.504389
vt 0.181418 0.752435
vt 0.029795 0.757833
vt 0.774429 0.502391
vt 0.875000 0.500000
vt 0.875000 0.750000
vt 0.776254 0.757757
vn -0.0078 -1.0000 0.0000
vn 0.0000 0.0000 -1.0000
vn 0.0078 1.0000 0.0000
vn 0.0000 0.0000 1.0000
vn 1.0000 -0.0078 0.0000
vn -1.0000 0.0078 0.0000
usemtl Material.001
s off
f 1/1/1 2/2/1 4/3/1 3/4/1
f 3/5/2 4/6/2 8/7/2 7/8/2
f 7/9/3 8/10/3 6/11/3 5/12/3
f 5/13/4 6/14/4 2/15/4 1/16/4
f 3/17/5 7/18/5 5/19/5 1/20/5
f 8/21/6 4/22/6 2/23/6 6/24/6
