# Blender v3.1.2 OBJ File: 'Goal.blend'
# www.blender.org
mtllib Goal.mtl
o Cylinder.001
v 0.000000 -0.426390 -3.402102
v 0.000000 4.024294 -3.402102
v 0.078789 -0.426390 -3.395078
v 0.078789 4.024294 -3.395078
v 0.154551 -0.426390 -3.374276
v 0.154551 4.024294 -3.374276
v 0.224373 -0.426390 -3.340494
v 0.224373 4.024294 -3.340494
v 0.285573 -0.426390 -3.295033
v 0.285573 4.024294 -3.295033
v 0.335798 -0.426390 -3.239637
v 0.335798 4.024294 -3.239637
v 0.373118 -0.426390 -3.176437
v 0.373118 4.024294 -3.176437
v 0.396100 -0.426390 -3.107860
v 0.396100 4.024294 -3.107860
v 0.403861 -0.426390 -3.036543
v 0.403861 4.024294 -3.036543
v 0.396100 -0.426390 -2.965226
v 0.396100 4.024294 -2.965226
v 0.373119 -0.426390 -2.896650
v 0.373119 4.024294 -2.896650
v 0.335798 -0.426390 -2.833449
v 0.335798 4.024294 -2.833449
v 0.285573 -0.426390 -2.778054
v 0.285573 4.024294 -2.778054
v 0.224373 -0.426390 -2.732592
v 0.224373 4.024294 -2.732592
v 0.154551 -0.426390 -2.698811
v 0.154551 4.024294 -2.698811
v 0.078789 -0.426390 -2.678008
v 0.078789 4.024294 -2.678008
v -0.000000 -0.426390 -2.670984
v -0.000000 4.024294 -2.670984
v -0.078789 -0.426390 -2.678008
v -0.078789 4.024294 -2.678008
v -0.154551 -0.426390 -2.698811
v -0.154551 4.024294 -2.698811
v -0.224373 -0.426390 -2.732592
v -0.224373 4.024294 -2.732592
v -0.285573 -0.426390 -2.778054
v -0.285573 4.024294 -2.778054
v -0.335798 -0.426390 -2.833449
v -0.335798 4.024294 -2.833449
v -0.373118 -0.426390 -2.896650
v -0.373118 4.024294 -2.896650
v -0.396100 -0.426390 -2.965226
v -0.396100 4.024294 -2.965226
v -0.403861 -0.426390 -3.036543
v -0.403861 4.024294 -3.036543
v -0.396100 -0.426390 -3.107860
v -0.396100 4.024294 -3.107860
v -0.373118 -0.426390 -3.176437
v -0.373118 4.024294 -3.176437
v -0.335798 -0.426390 -3.239637
v -0.335798 4.024294 -3.239637
v -0.285573 -0.426390 -3.295033
v -0.285573 4.024294 -3.295033
v -0.224373 -0.426390 -3.340494
v -0.224373 4.024294 -3.340494
v -0.154551 -0.426390 -3.374276
v -0.154551 4.024294 -3.374276
v -0.078789 -0.426390 -3.395078
v -0.078789 4.024294 -3.395078
vt 1.000000 0.500000
vt 1.000000 1.000000
vt 0.968750 1.000000
vt 0.968750 0.500000
vt 0.937500 1.000000
vt 0.937500 0.500000
vt 0.906250 1.000000
vt 0.906250 0.500000
vt 0.875000 1.000000
vt 0.875000 0.500000
vt 0.843750 1.000000
vt 0.843750 0.500000
vt 0.812500 1.000000
vt 0.812500 0.500000
vt 0.781250 1.000000
vt 0.781250 0.500000
vt 0.750000 1.000000
vt 0.750000 0.500000
vt 0.718750 1.000000
vt 0.718750 0.500000
vt 0.687500 1.000000
vt 0.687500 0.500000
vt 0.656250 1.000000
vt 0.656250 0.500000
vt 0.625000 1.000000
vt 0.625000 0.500000
vt 0.593750 1.000000
vt 0.593750 0.500000
vt 0.562500 1.000000
vt 0.562500 0.500000
vt 0.531250 1.000000
vt 0.531250 0.500000
vt 0.500000 1.000000
vt 0.500000 0.500000
vt 0.468750 1.000000
vt 0.468750 0.500000
vt 0.437500 1.000000
vt 0.437500 0.500000
vt 0.406250 1.000000
vt 0.406250 0.500000
vt 0.375000 1.000000
vt 0.375000 0.500000
vt 0.343750 1.000000
vt 0.343750 0.500000
vt 0.312500 1.000000
vt 0.312500 0.500000
vt 0.281250 1.000000
vt 0.281250 0.500000
vt 0.250000 1.000000
vt 0.250000 0.500000
vt 0.218750 1.000000
vt 0.218750 0.500000
vt 0.187500 1.000000
vt 0.187500 0.500000
vt 0.156250 1.000000
vt 0.156250 0.500000
vt 0.125000 1.000000
vt 0.125000 0.500000
vt 0.093750 1.000000
vt 0.093750 0.500000
vt 0.062500 1.000000
vt 0.062500 0.500000
vt 0.296822 0.485388
vt 0.250000 0.490000
vt 0.203178 0.485388
vt 0.158156 0.471731
vt 0.116663 0.449553
vt 0.080294 0.419706
vt 0.050447 0.383337
vt 0.028269 0.341844
vt 0.014612 0.296822
vt 0.010000 0.250000
vt 0.014612 0.203178
vt 0.028269 0.158156
vt 0.050447 0.116663
vt 0.080294 0.080294
vt 0.116663 0.050447
vt 0.158156 0.028269
vt 0.203178 0.014612
vt 0.250000 0.010000
vt 0.296822 0.014612
vt 0.341844 0.028269
vt 0.383337 0.050447
vt 0.419706 0.080294
vt 0.449553 0.116663
vt 0.471731 0.158156
vt 0.485388 0.203178
vt 0.490000 0.250000
vt 0.485388 0.296822
vt 0.471731 0.341844
vt 0.449553 0.383337
vt 0.419706 0.419706
vt 0.383337 0.449553
vt 0.341844 0.471731
vt 0.031250 1.000000
vt 0.031250 0.500000
vt 0.000000 1.000000
vt 0.000000 0.500000
vt 0.750000 0.490000
vt 0.796822 0.485388
vt 0.841844 0.471731
vt 0.883337 0.449553
vt 0.919706 0.419706
vt 0.949553 0.383337
vt 0.971731 0.341844
vt 0.985388 0.296822
vt 0.990000 0.250000
vt 0.985388 0.203178
vt 0.971731 0.158156
vt 0.949553 0.116663
vt 0.919706 0.080294
vt 0.883337 0.050447
vt 0.841844 0.028269
vt 0.796822 0.014612
vt 0.750000 0.010000
vt 0.703178 0.014612
vt 0.658156 0.028269
vt 0.616663 0.050447
vt 0.580294 0.080294
vt 0.550447 0.116663
vt 0.528269 0.158156
vt 0.514612 0.203178
vt 0.510000 0.250000
vt 0.514612 0.296822
vt 0.528269 0.341844
vt 0.550447 0.383337
vt 0.580294 0.419706
vt 0.616663 0.449553
vt 0.658156 0.471731
vt 0.703178 0.485388
vn 0.0888 0.0000 -0.9960
vn 0.2648 0.0000 -0.9643
vn 0.4355 0.0000 -0.9002
vn 0.5963 0.0000 -0.8027
vn 0.7408 0.0000 -0.6717
vn 0.8611 0.0000 -0.5085
vn 0.9482 0.0000 -0.3178
vn 0.9941 0.0000 -0.1082
vn 0.9941 0.0000 0.1082
vn 0.9482 0.0000 0.3178
vn 0.8611 0.0000 0.5085
vn 0.7408 0.0000 0.6717
vn 0.5963 0.0000 0.8027
vn 0.4355 0.0000 0.9002
vn 0.2648 0.0000 0.9643
vn 0.0888 0.0000 0.9960
vn -0.0888 0.0000 0.9960
vn -0.2648 0.0000 0.9643
vn -0.4355 0.0000 0.9002
vn -0.5963 0.0000 0.8027
vn -0.7408 0.0000 0.6717
vn -0.8611 0.0000 0.5085
vn -0.9482 0.0000 0.3178
vn -0.9941 0.0000 0.1082
vn -0.9941 0.0000 -0.1082
vn -0.9482 0.0000 -0.3178
vn -0.8611 0.0000 -0.5085
vn -0.7408 0.0000 -0.6717
vn -0.5963 0.0000 -0.8027
vn -0.4355 0.0000 -0.9002
vn 0.0000 1.0000 -0.0000
vn -0.2648 0.0000 -0.9643
vn -0.0888 0.0000 -0.9960
vn 0.0000 -1.0000 -0.0000
usemtl Material.002
s off
f 1/1/1 2/2/1 4/3/1 3/4/1
f 3/4/2 4/3/2 6/5/2 5/6/2
f 5/6/3 6/5/3 8/7/3 7/8/3
f 7/8/4 8/7/4 10/9/4 9/10/4
f 9/10/5 10/9/5 12/11/5 11/12/5
f 11/12/6 12/11/6 14/13/6 13/14/6
f 13/14/7 14/13/7 16/15/7 15/16/7
f 15/16/8 16/15/8 18/17/8 17/18/8
f 17/18/9 18/17/9 20/19/9 19/20/9
f 19/20/10 20/19/10 22/21/10 21/22/10
f 21/22/11 22/21/11 24/23/11 23/24/11
f 23/24/12 24/23/12 26/25/12 25/26/12
f 25/26/13 26/25/13 28/27/13 27/28/13
f 27/28/14 28/27/14 30/29/14 29/30/14
f 29/30/15 30/29/15 32/31/15 31/32/15
f 31/32/16 32/31/16 34/33/16 33/34/16
f 33/34/17 34/33/17 36/35/17 35/36/17
f 35/36/18 36/35/18 38/37/18 37/38/18
f 37/38/19 38/37/19 40/39/19 39/40/19
f 39/40/20 40/39/20 42/41/20 41/42/20
f 41/42/21 42/41/21 44/43/21 43/44/21
f 43/44/22 44/43/22 46/45/22 45/46/22
f 45/46/23 46/45/23 48/47/23 47/48/23
f 47/48/24 48/47/24 50/49/24 49/50/24
f 49/50/25 50/49/25 52/51/25 51/52/25
f 51/52/26 52/51/26 54/53/26 53/54/26
f 53/54/27 54/53/27 56/55/27 55/56/27
f 55/56/28 56/55/28 58/57/28 57/58/28
f 57/58/29 58/57/29 60/59/29 59/60/29
f 59/60/30 60/59/30 62/61/30 61/62/30
f 4/63/31 2/64/31 64/65/31 62/66/31 60/67/31 58/68/31 56/69/31 54/70/31 52/71/31 50/72/31 48/73/31 46/74/31 44/75/31 42/76/31 40/77/31 38/78/31 36/79/31 34/80/31 32/81/31 30/82/31 28/83/31 26/84/31 24/85/31 22/86/31 20/87/31 18/88/31 16/89/31 14/90/31 12/91/31 10/92/31 8/93/31 6/94/31
f 61/62/32 62/61/32 64/95/32 63/96/32
f 63/96/33 64/95/33 2/97/33 1/98/33
f 1/99/34 3/100/34 5/101/34 7/102/34 9/103/34 11/104/34 13/105/34 15/106/34 17/107/34 19/108/34 21/109/34 23/110/34 25/111/34 27/112/34 29/113/34 31/114/34 33/115/34 35/116/34 37/117/34 39/118/34 41/119/34 43/120/34 45/121/34 47/122/34 49/123/34 51/124/34 53/125/34 55/126/34 57/127/34 59/128/34 61/129/34 63/130/34
o Cube_Cube.003
v -0.550091 5.033894 4.095690
v -0.550091 5.040945 -4.281433
v -0.550091 3.700491 4.094568
v -0.550091 3.707542 -4.282555
v 0.550091 5.033894 4.095690
v 0.550091 5.040945 -4.281433
v 0.550091 3.700491 4.094568
v 0.550091 3.707542 -4.282555
vt 0.717668 0.290155
vt 0.897276 0.302161
vt 0.902300 0.461178
vt 0.720758 0.448778
vt 0.752767 0.312593
vt 0.902212 0.321193
vt 0.923101 0.459504
vt 0.749654 0.457111
vt 0.205212 0.003270
vt 0.997435 0.000195
vt 0.996736 0.287981
vt 0.206370 0.294810
vt 0.155741 0.541850
vt 0.390124 0.546073
vt 0.386405 0.714715
vt 0.179578 0.688207
vt 0.026575 0.365066
vt 0.212354 0.349854
vt 0.214970 0.596977
vt 0.034080 0.580941
vt 0.674365 0.519982
vt 0.890594 0.528617
vt 0.892479 0.722541
vt 0.669653 0.714075
vn -1.0000 0.0000 0.0000
vn 0.0000 -1.0000 -0.0008
vn 1.0000 0.0000 0.0000
vn 0.0000 1.0000 0.0008
vn 0.0000 -0.0008 1.0000
vn 0.0000 0.0008 -1.0000
usemtl Material.003
s off
f 65/131/35 66/132/35 68/133/35 67/134/35
f 67/135/36 68/136/36 72/137/36 71/138/36
f 71/139/37 72/140/37 70/141/37 69/142/37
f 69/143/38 70/144/38 66/145/38 65/146/38
f 67/147/39 71/148/39 69/149/39 65/150/39
f 72/151/40 68/152/40 66/153/40 70/154/40
o Cylinder.002
v 0.000000 -0.366078 2.325779
v 0.000000 4.084607 2.325779
v 0.078789 -0.366078 2.332803
v 0.078789 4.084607 2.332803
v 0.154551 -0.366078 2.353606
v 0.154551 4.084607 2.353606
v 0.224373 -0.366078 2.387387
v 0.224373 4.084607 2.387387
v 0.285573 -0.366078 2.432849
v 0.285573 4.084607 2.432849
v 0.335798 -0.366078 2.488245
v 0.335798 4.084607 2.488245
v 0.373118 -0.366078 2.551445
v 0.373118 4.084607 2.551445
v 0.396100 -0.366078 2.620022
v 0.396100 4.084607 2.620022
v 0.403861 -0.366078 2.691339
v 0.403861 4.084607 2.691339
v 0.396100 -0.366078 2.762655
v 0.396100 4.084607 2.762655
v 0.373119 -0.366078 2.831232
v 0.373119 4.084607 2.831232
v 0.335798 -0.366078 2.894432
v 0.335798 4.084607 2.894432
v 0.285573 -0.366078 2.949828
v 0.285573 4.084607 2.949828
v 0.224373 -0.366078 2.995290
v 0.224373 4.084607 2.995290
v 0.154551 -0.366078 3.029071
v 0.154551 4.084607 3.029071
v 0.078789 -0.366078 3.049874
v 0.078789 4.084607 3.049874
v -0.000000 -0.366078 3.056898
v -0.000000 4.084607 3.056898
v -0.078789 -0.366078 3.049874
v -0.078789 4.084607 3.049874
v -0.154551 -0.366078 3.029071
v -0.154551 4.084607 3.029071
v -0.224373 -0.366078 2.995290
v -0.224373 4.084607 2.995290
v -0.285573 -0.366078 2.949828
v -0.285573 4.084607 2.949828
v -0.335798 -0.366078 2.894432
v -0.335798 4.084607 2.894432
v -0.373118 -0.366078 2.831232
v -0.373118 4.084607 2.831232
v -0.396100 -0.366078 2.762655
v -0.396100 4.084607 2.762655
v -0.403861 -0.366078 2.691339
v -0.403861 4.084607 2.691339
v -0.396100 -0.366078 2.620021
v -0.396100 4.084607 2.620021
v -0.373118 -0.366078 2.551445
v -0.373118 4.084607 2.551445
v -0.335798 -0.366078 2.488245
v -0.335798 4.084607 2.488245
v -0.285573 -0.366078 2.432849
v -0.285573 4.084607 2.432849
v -0.224373 -0.366078 2.387387
v -0.224373 4.084607 2.387387
v -0.154551 -0.366078 2.353606
v -0.154551 4.084607 2.353606
v -0.078789 -0.366078 2.332803
v -0.078789 4.084607 2.332803
vt 1.000000 0.500000
vt 1.000000 1.000000
vt 0.968750 1.000000
vt 0.968750 0.500000
vt 0.937500 1.000000
vt 0.937500 0.500000
vt 0.906250 1.000000
vt 0.906250 0.500000
vt 0.875000 1.000000
vt 0.875000 0.500000
vt 0.843750 1.000000
vt 0.843750 0.500000
vt 0.812500 1.000000
vt 0.812500 0.500000
vt 0.781250 1.000000
vt 0.781250 0.500000
vt 0.750000 1.000000
vt 0.750000 0.500000
vt 0.718750 1.000000
vt 0.718750 0.500000
vt 0.687500 1.000000
vt 0.687500 0.500000
vt 0.656250 1.000000
vt 0.656250 0.500000
vt 0.625000 1.000000
vt 0.625000 0.500000
vt 0.593750 1.000000
vt 0.593750 0.500000
vt 0.562500 1.000000
vt 0.562500 0.500000
vt 0.531250 1.000000
vt 0.531250 0.500000
vt 0.500000 1.000000
vt 0.500000 0.500000
vt 0.468750 1.000000
vt 0.468750 0.500000
vt 0.437500 1.000000
vt 0.437500 0.500000
vt 0.406250 1.000000
vt 0.406250 0.500000
vt 0.375000 1.000000
vt 0.375000 0.500000
vt 0.343750 1.000000
vt 0.343750 0.500000
vt 0.312500 1.000000
vt 0.312500 0.500000
vt 0.281250 1.000000
vt 0.281250 0.500000
vt 0.250000 1.000000
vt 0.250000 0.500000
vt 0.218750 1.000000
vt 0.218750 0.500000
vt 0.187500 1.000000
vt 0.187500 0.500000
vt 0.156250 1.000000
vt 0.156250 0.500000
vt 0.125000 1.000000
vt 0.125000 0.500000
vt 0.093750 1.000000
vt 0.093750 0.500000
vt 0.062500 1.000000
vt 0.062500 0.500000
vt 0.296822 0.485388
vt 0.250000 0.490000
vt 0.203178 0.485388
vt 0.158156 0.471731
vt 0.116663 0.449553
vt 0.080294 0.419706
vt 0.050447 0.383337
vt 0.028269 0.341844
vt 0.014612 0.296822
vt 0.010000 0.250000
vt 0.014612 0.203178
vt 0.028269 0.158156
vt 0.050447 0.116663
vt 0.080294 0.080294
vt 0.116663 0.050447
vt 0.158156 0.028269
vt 0.203178 0.014612
vt 0.250000 0.010000
vt 0.296822 0.014612
vt 0.341844 0.028269
vt 0.383337 0.050447
vt 0.419706 0.080294
vt 0.449553 0.116663
vt 0.471731 0.158156
vt 0.485388 0.203178
vt 0.490000 0.250000
vt 0.485388 0.296822
vt 0.471731 0.341844
vt 0.449553 0.383337
vt 0.419706 0.419706
vt 0.383337 0.449553
vt 0.341844 0.471731
vt 0.031250 1.000000
vt 0.031250 0.500000
vt 0.000000 1.000000
vt 0.000000 0.500000
vt 0.750000 0.490000
vt 0.796822 0.485388
vt 0.841844 0.471731
vt 0.883337 0.449553
vt 0.919706 0.419706
vt 0.949553 0.383337
vt 0.971731 0.341844
vt 0.985388 0.296822
vt 0.990000 0.250000
vt 0.985388 0.203178
vt 0.971731 0.158156
vt 0.949553 0.116663
vt 0.919706 0.080294
vt 0.883337 0.050447
vt 0.841844 0.028269
vt 0.796822 0.014612
vt 0.750000 0.010000
vt 0.703178 0.014612
vt 0.658156 0.028269
vt 0.616663 0.050447
vt 0.580294 0.080294
vt 0.550447 0.116663
vt 0.528269 0.158156
vt 0.514612 0.203178
vt 0.510000 0.250000
vt 0.514612 0.296822
vt 0.528269 0.341844
vt 0.550447 0.383337
vt 0.580294 0.419706
vt 0.616663 0.449553
vt 0.658156 0.471731
vt 0.703178 0.485388
vn 0.0888 0.0000 -0.9960
vn 0.2648 0.0000 -0.9643
vn 0.4355 0.0000 -0.9002
vn 0.5963 0.0000 -0.8027
vn 0.7408 0.0000 -0.6717
vn 0.8611 0.0000 -0.5085
vn 0.9482 0.0000 -0.3178
vn 0.9941 0.0000 -0.1082
vn 0.9941 0.0000 0.1082
vn 0.9482 0.0000 0.3178
vn 0.8611 0.0000 0.5085
vn 0.7408 0.0000 0.6717
vn 0.5963 0.0000 0.8027
vn 0.4355 0.0000 0.9002
vn 0.2648 0.0000 0.9643
vn 0.0888 0.0000 0.9960
vn -0.0888 0.0000 0.9960
vn -0.2648 0.0000 0.9643
vn -0.4355 0.0000 0.9002
vn -0.5963 0.0000 0.8027
vn -0.7408 0.0000 0.6717
vn -0.8611 0.0000 0.5085
vn -0.9482 0.0000 0.3178
vn -0.9941 0.0000 0.1082
vn -0.9941 0.0000 -0.1082
vn -0.9482 0.0000 -0.3178
vn -0.8611 0.0000 -0.5085
vn -0.7408 0.0000 -0.6717
vn -0.5963 0.0000 -0.8027
vn -0.4355 0.0000 -0.9002
vn 0.0000 1.0000 -0.0000
vn -0.2648 0.0000 -0.9643
vn -0.0888 0.0000 -0.9960
vn 0.0000 -1.0000 -0.0000
usemtl Material.004
s off
f 73/155/41 74/156/41 76/157/41 75/158/41
f 75/158/42 76/157/42 78/159/42 77/160/42
f 77/160/43 78/159/43 80/161/43 79/162/43
f 79/162/44 80/161/44 82/163/44 81/164/44
f 81/164/45 82/163/45 84/165/45 83/166/45
f 83/166/46 84/165/46 86/167/46 85/168/46
f 85/168/47 86/167/47 88/169/47 87/170/47
f 87/170/48 88/169/48 90/171/48 89/172/48
f 89/172/49 90/171/49 92/173/49 91/174/49
f 91/174/50 92/173/50 94/175/50 93/176/50
f 93/176/51 94/175/51 96/177/51 95/178/51
f 95/178/52 96/177/52 98/179/52 97/180/52
f 97/180/53 98/179/53 100/181/53 99/182/53
f 99/182/54 100/181/54 102/183/54 101/184/54
f 101/184/55 102/183/55 104/185/55 103/186/55
f 103/186/56 104/185/56 106/187/56 105/188/56
f 105/188/57 106/187/57 108/189/57 107/190/57
f 107/190/58 108/189/58 110/191/58 109/192/58
f 109/192/59 110/191/59 112/193/59 111/194/59
f 111/194/60 112/193/60 114/195/60 113/196/60
f 113/196/61 114/195/61 116/197/61 115/198/61
f 115/198/62 116/197/62 118/199/62 117/200/62
f 117/200/63 118/199/63 120/201/63 119/202/63
f 119/202/64 120/201/64 122/203/64 121/204/64
f 121/204/65 122/203/65 124/205/65 123/206/65
f 123/206/66 124/205/66 126/207/66 125/208/66
f 125/208/67 126/207/67 128/209/67 127/210/67
f 127/210/68 128/209/68 130/211/68 129/212/68
f 129/212/69 130/211/69 132/213/69 131/214/69
f 131/214/70 132/213/70 134/215/70 133/216/70
f 76/217/71 74/218/71 136/219/71 134/220/71 132/221/71 130/222/71 128/223/71 126/224/71 124/225/71 122/226/71 120/227/71 118/228/71 116/229/71 114/230/71 112/231/71 110/232/71 108/233/71 106/234/71 104/235/71 102/236/71 100/237/71 98/238/71 96/239/71 94/240/71 92/241/71 90/242/71 88/243/71 86/244/71 84/245/71 82/246/71 80/247/71 78/248/71
f 133/216/72 134/215/72 136/249/72 135/250/72
f 135/250/73 136/249/73 74/251/73 73/252/73
f 73/253/74 75/254/74 77/255/74 79/256/74 81/257/74 83/258/74 85/259/74 87/260/74 89/261/74 91/262/74 93/263/74 95/264/74 97/265/74 99/266/74 101/267/74 103/268/74 105/269/74 107/270/74 109/271/74 111/272/74 113/273/74 115/274/74 117/275/74 119/276/74 121/277/74 123/278/74 125/279/74 127/280/74 129/281/74 131/282/74 133/283/74 135/284/74
