# Blender v3.1.2 OBJ File: 'goalyuka.blend'
# www.blender.org
mtllib goalyuka.mtl
o Cube_Cube.001
v -0.674601 0.029493 0.794662
v -0.674601 -0.029493 0.794662
v -0.674601 0.029493 -0.794662
v -0.674601 -0.029493 -0.794662
v 0.674601 0.029493 0.794662
v 0.674601 -0.029493 0.794662
v 0.674601 0.029493 -0.794662
v 0.674601 -0.029493 -0.794662
vt 0.375000 0.000000
vt 0.375000 0.250000
vt 0.625000 0.250000
vt 0.625000 0.000000
vt 0.375000 0.500000
vt 0.625000 0.500000
vt 0.375000 0.750000
vt 0.625000 0.750000
vt 0.375000 1.000000
vt 0.625000 1.000000
vt 0.006025 0.279730
vt 0.003836 1.000167
vt 0.999976 0.999069
vt 0.997728 0.278732
vt 0.875000 0.750000
vt 0.875000 0.500000
vn -1.0000 0.0000 0.0000
vn 0.0000 0.0000 -1.0000
vn 1.0000 0.0000 0.0000
vn 0.0000 0.0000 1.0000
vn 0.0000 1.0000 0.0000
vn 0.0000 -1.0000 0.0000
usemtl Material.001
s off
f 1/1/1 3/2/1 4/3/1 2/4/1
f 3/2/2 7/5/2 8/6/2 4/3/2
f 7/5/3 5/7/3 6/8/3 8/6/3
f 5/7/4 1/9/4 2/10/4 6/8/4
f 3/11/5 1/12/5 5/13/5 7/14/5
f 8/6/6 6/8/6 2/15/6 4/16/6
o Cube.001_Cube.002
v -0.674601 0.029493 -0.794257
v -0.674601 -0.029493 -0.794257
v -0.674601 0.029493 -2.383580
v -0.674601 -0.029493 -2.383580
v 0.674601 0.029493 -0.794257
v 0.674601 -0.029493 -0.794257
v 0.674601 0.029493 -2.383580
v 0.674601 -0.029493 -2.383580
vt 0.375000 0.000000
vt 0.375000 0.250000
vt 0.625000 0.250000
vt 0.625000 0.000000
vt 0.375000 0.500000
vt 0.625000 0.500000
vt 0.375000 0.750000
vt 0.625000 0.750000
vt 0.375000 1.000000
vt 0.625000 1.000000
vt 0.006025 0.279730
vt 0.003836 1.000167
vt 0.999976 0.999069
vt 0.997728 0.278732
vt 0.875000 0.750000
vt 0.875000 0.500000
vn -1.0000 0.0000 0.0000
vn 0.0000 0.0000 -1.0000
vn 1.0000 0.0000 0.0000
vn 0.0000 0.0000 1.0000
vn 0.0000 1.0000 0.0000
vn 0.0000 -1.0000 0.0000
usemtl Material.002
s off
f 9/17/7 11/18/7 12/19/7 10/20/7
f 11/18/8 15/21/8 16/22/8 12/19/8
f 15/21/9 13/23/9 14/24/9 16/22/9
f 13/23/10 9/25/10 10/26/10 14/24/10
f 11/27/11 9/28/11 13/29/11 15/30/11
f 16/22/12 14/24/12 10/31/12 12/32/12
