# Blender v3.1.2 OBJ File: 'item.blend'
# www.blender.org
mtllib item.mtl
o Cube_Cube.004
v -0.436564 -2.663837 4.439976
v -4.220120 1.602418 2.573489
v -0.436564 -5.068750 -1.056968
v -4.220120 -0.802495 -2.923455
v 4.220120 0.802495 2.923455
v 0.436564 5.068750 1.056968
v 4.220120 -1.602418 -2.573489
v 0.436564 2.663837 -4.439976
vt 0.289899 0.199328
vt 0.706658 0.214329
vt 0.728078 0.824829
vt 0.298019 0.827585
vt 0.292678 0.198045
vt 0.710937 0.206409
vt 0.732931 0.801104
vt 0.287225 0.798046
vt 0.264224 0.192297
vt 0.720191 0.179959
vt 0.731646 0.799660
vt 0.267688 0.804498
vt 0.319638 0.183351
vt 0.694262 0.186967
vt 0.722405 0.814925
vt 0.327143 0.783509
vt 0.303202 0.200276
vt 0.702073 0.212489
vt 0.711903 0.794505
vt 0.303857 0.810296
vt 0.276587 0.171146
vt 0.766564 0.176736
vt 0.790639 0.809436
vt 0.280339 0.811193
vn -0.7761 -0.5777 0.2528
vn -0.0000 -0.4008 -0.9162
vn 0.7761 0.5777 -0.2528
vn 0.0000 0.4008 0.9162
vn 0.6306 -0.7110 0.3111
vn -0.6306 0.7110 -0.3111
usemtl Material.004
s off
f 1/1/1 2/2/1 4/3/1 3/4/1
f 3/5/2 4/6/2 8/7/2 7/8/2
f 7/9/3 8/10/3 6/11/3 5/12/3
f 5/13/4 6/14/4 2/15/4 1/16/4
f 3/17/5 7/18/5 5/19/5 1/20/5
f 8/21/6 4/22/6 2/23/6 6/24/6
