# Blender v3.1.2 OBJ File: 'block.blend'
# www.blender.org
mtllib wall.mtl
o Cube_Cube.001
v -0.985754 -1.000000 1.000000
v -0.985754 1.000000 1.000000
v -0.985754 -1.000000 -1.000000
v -0.985754 1.000000 -1.000000
v 1.014246 -1.000000 1.000000
v 1.014246 1.000000 1.000000
v 1.014246 -1.000000 -1.000000
v 1.014246 1.000000 -1.000000
vt 0.375000 0.000000
vt 0.625000 0.000000
vt 0.625000 0.250000
vt 0.375000 0.250000
vt 0.625000 0.500000
vt 0.375000 0.500000
vt 0.625000 0.750000
vt 0.375000 0.750000
vt 0.625000 1.000000
vt 0.375000 1.000000
vt 0.125000 0.500000
vt 0.125000 0.750000
vt 0.875000 0.500000
vt 0.875000 0.750000
vn -0.5774 -0.5774 0.5774
vn -0.5774 0.5774 0.5774
vn -0.5774 0.5774 -0.5774
vn -0.5774 -0.5774 -0.5774
vn 0.5774 0.5774 -0.5774
vn 0.5774 -0.5774 -0.5774
vn 0.5774 0.5774 0.5774
vn 0.5774 -0.5774 0.5774
usemtl Material.002
s 1
f 1/1/1 2/2/2 4/3/3 3/4/4
f 3/4/4 4/3/3 8/5/5 7/6/6
f 7/6/6 8/5/5 6/7/7 5/8/8
f 5/8/8 6/7/7 2/9/2 1/10/1
f 3/11/4 7/6/6 5/8/8 1/12/1
f 8/5/5 4/13/3 2/14/2 6/7/7
o Cube.001_Cube.002
v -2.983545 -1.000000 1.000000
v -2.983545 1.000000 1.000000
v -2.983545 -1.000000 -1.000000
v -2.983545 1.000000 -1.000000
v -0.983545 -1.000000 1.000000
v -0.983545 1.000000 1.000000
v -0.983545 -1.000000 -1.000000
v -0.983545 1.000000 -1.000000
vt 0.375000 0.000000
vt 0.625000 0.000000
vt 0.625000 0.250000
vt 0.375000 0.250000
vt 0.625000 0.500000
vt 0.375000 0.500000
vt 0.625000 0.750000
vt 0.375000 0.750000
vt 0.625000 1.000000
vt 0.375000 1.000000
vt 0.125000 0.500000
vt 0.125000 0.750000
vt 0.875000 0.500000
vt 0.875000 0.750000
vn -0.5774 -0.5774 0.5774
vn -0.5774 0.5774 0.5774
vn -0.5774 0.5774 -0.5774
vn -0.5774 -0.5774 -0.5774
vn 0.5774 0.5774 -0.5774
vn 0.5774 -0.5774 -0.5774
vn 0.5774 0.5774 0.5774
vn 0.5774 -0.5774 0.5774
usemtl Material.003
s 1
f 9/15/9 10/16/10 12/17/11 11/18/12
f 11/18/12 12/17/11 16/19/13 15/20/14
f 15/20/14 16/19/13 14/21/15 13/22/16
f 13/22/16 14/21/15 10/23/10 9/24/9
f 11/25/12 15/20/14 13/22/16 9/26/9
f 16/19/13 12/27/11 10/28/10 14/21/15
o Cube.002_Cube.003
v 1.000685 -1.000000 1.000000
v 1.000685 1.000000 1.000000
v 1.000685 -1.000000 -1.000000
v 1.000685 1.000000 -1.000000
v 3.000685 -1.000000 1.000000
v 3.000685 1.000000 1.000000
v 3.000685 -1.000000 -1.000000
v 3.000685 1.000000 -1.000000
vt 0.375000 0.000000
vt 0.625000 0.000000
vt 0.625000 0.250000
vt 0.375000 0.250000
vt 0.625000 0.500000
vt 0.375000 0.500000
vt 0.625000 0.750000
vt 0.375000 0.750000
vt 0.625000 1.000000
vt 0.375000 1.000000
vt 0.125000 0.500000
vt 0.125000 0.750000
vt 0.875000 0.500000
vt 0.875000 0.750000
vn -0.5774 -0.5774 0.5774
vn -0.5774 0.5774 0.5774
vn -0.5774 0.5774 -0.5774
vn -0.5774 -0.5774 -0.5774
vn 0.5774 0.5774 -0.5774
vn 0.5774 -0.5774 -0.5774
vn 0.5774 0.5774 0.5774
vn 0.5774 -0.5774 0.5774
usemtl Material.001
s 1
f 17/29/17 18/30/18 20/31/19 19/32/20
f 19/32/20 20/31/19 24/33/21 23/34/22
f 23/34/22 24/33/21 22/35/23 21/36/24
f 21/36/24 22/35/23 18/37/18 17/38/17
f 19/39/20 23/34/22 21/36/24 17/40/17
f 24/33/21 20/41/19 18/42/18 22/35/23
o Cube.003_Cube.004
v 2.988896 -1.000000 1.000000
v 2.988896 1.000000 1.000000
v 2.988896 -1.000000 -1.000000
v 2.988896 1.000000 -1.000000
v 4.988895 -1.000000 1.000000
v 4.988895 1.000000 1.000000
v 4.988895 -1.000000 -1.000000
v 4.988895 1.000000 -1.000000
vt 0.375000 0.000000
vt 0.625000 0.000000
vt 0.625000 0.250000
vt 0.375000 0.250000
vt 0.625000 0.500000
vt 0.375000 0.500000
vt 0.625000 0.750000
vt 0.375000 0.750000
vt 0.625000 1.000000
vt 0.375000 1.000000
vt 0.125000 0.500000
vt 0.125000 0.750000
vt 0.875000 0.500000
vt 0.875000 0.750000
vn -0.5774 -0.5774 0.5774
vn -0.5774 0.5774 0.5774
vn -0.5774 0.5774 -0.5774
vn -0.5774 -0.5774 -0.5774
vn 0.5774 0.5774 -0.5774
vn 0.5774 -0.5774 -0.5774
vn 0.5774 0.5774 0.5774
vn 0.5774 -0.5774 0.5774
usemtl Material.004
s 1
f 25/43/25 26/44/26 28/45/27 27/46/28
f 27/46/28 28/45/27 32/47/29 31/48/30
f 31/48/30 32/47/29 30/49/31 29/50/32
f 29/50/32 30/49/31 26/51/26 25/52/25
f 27/53/28 31/48/30 29/50/32 25/54/25
f 32/47/29 28/55/27 26/56/26 30/49/31
o Cube.004_Cube.005
v 4.981081 -1.000000 1.000000
v 4.981081 1.000000 1.000000
v 4.981081 -1.000000 -1.000000
v 4.981081 1.000000 -1.000000
v 6.981081 -1.000000 1.000000
v 6.981081 1.000000 1.000000
v 6.981081 -1.000000 -1.000000
v 6.981081 1.000000 -1.000000
vt 0.375000 0.000000
vt 0.625000 0.000000
vt 0.625000 0.250000
vt 0.375000 0.250000
vt 0.625000 0.500000
vt 0.375000 0.500000
vt 0.625000 0.750000
vt 0.375000 0.750000
vt 0.625000 1.000000
vt 0.375000 1.000000
vt 0.125000 0.500000
vt 0.125000 0.750000
vt 0.875000 0.500000
vt 0.875000 0.750000
vn -0.5774 -0.5774 0.5774
vn -0.5774 0.5774 0.5774
vn -0.5774 0.5774 -0.5774
vn -0.5774 -0.5774 -0.5774
vn 0.5774 0.5774 -0.5774
vn 0.5774 -0.5774 -0.5774
vn 0.5774 0.5774 0.5774
vn 0.5774 -0.5774 0.5774
usemtl Material.005
s 1
f 33/57/33 34/58/34 36/59/35 35/60/36
f 35/60/36 36/59/35 40/61/37 39/62/38
f 39/62/38 40/61/37 38/63/39 37/64/40
f 37/64/40 38/63/39 34/65/34 33/66/33
f 35/67/36 39/62/38 37/64/40 33/68/33
f 40/61/37 36/69/35 34/70/34 38/63/39
o Cube.005_Cube.006
v 6.929367 -1.000000 1.000000
v 6.929367 1.000000 1.000000
v 6.929367 -1.000000 -1.000000
v 6.929367 1.000000 -1.000000
v 8.929367 -1.000000 1.000000
v 8.929367 1.000000 1.000000
v 8.929367 -1.000000 -1.000000
v 8.929367 1.000000 -1.000000
vt 0.375000 0.000000
vt 0.625000 0.000000
vt 0.625000 0.250000
vt 0.375000 0.250000
vt 0.625000 0.500000
vt 0.375000 0.500000
vt 0.625000 0.750000
vt 0.375000 0.750000
vt 0.625000 1.000000
vt 0.375000 1.000000
vt 0.125000 0.500000
vt 0.125000 0.750000
vt 0.875000 0.500000
vt 0.875000 0.750000
vn -0.5774 -0.5774 0.5774
vn -0.5774 0.5774 0.5774
vn -0.5774 0.5774 -0.5774
vn -0.5774 -0.5774 -0.5774
vn 0.5774 0.5774 -0.5774
vn 0.5774 -0.5774 -0.5774
vn 0.5774 0.5774 0.5774
vn 0.5774 -0.5774 0.5774
usemtl Material.006
s 1
f 41/71/41 42/72/42 44/73/43 43/74/44
f 43/74/44 44/73/43 48/75/45 47/76/46
f 47/76/46 48/75/45 46/77/47 45/78/48
f 45/78/48 46/77/47 42/79/42 41/80/41
f 43/81/44 47/76/46 45/78/48 41/82/41
f 48/75/45 44/83/43 42/84/42 46/77/47
o Cube.006_Cube.007
v -5.017816 -1.000000 1.000000
v -5.017816 1.000000 1.000000
v -5.017816 -1.000000 -1.000000
v -5.017816 1.000000 -1.000000
v -3.017816 -1.000000 1.000000
v -3.017816 1.000000 1.000000
v -3.017816 -1.000000 -1.000000
v -3.017816 1.000000 -1.000000
vt 0.375000 0.000000
vt 0.625000 0.000000
vt 0.625000 0.250000
vt 0.375000 0.250000
vt 0.625000 0.500000
vt 0.375000 0.500000
vt 0.625000 0.750000
vt 0.375000 0.750000
vt 0.625000 1.000000
vt 0.375000 1.000000
vt 0.125000 0.500000
vt 0.125000 0.750000
vt 0.875000 0.500000
vt 0.875000 0.750000
vn -0.5774 -0.5774 0.5774
vn -0.5774 0.5774 0.5774
vn -0.5774 0.5774 -0.5774
vn -0.5774 -0.5774 -0.5774
vn 0.5774 0.5774 -0.5774
vn 0.5774 -0.5774 -0.5774
vn 0.5774 0.5774 0.5774
vn 0.5774 -0.5774 0.5774
usemtl Material.007
s 1
f 49/85/49 50/86/50 52/87/51 51/88/52
f 51/88/52 52/87/51 56/89/53 55/90/54
f 55/90/54 56/89/53 54/91/55 53/92/56
f 53/92/56 54/91/55 50/93/50 49/94/49
f 51/95/52 55/90/54 53/92/56 49/96/49
f 56/89/53 52/97/51 50/98/50 54/91/55
o Cube.007_Cube.008
v -7.015733 -1.000000 1.000000
v -7.015733 1.000000 1.000000
v -7.015733 -1.000000 -1.000000
v -7.015733 1.000000 -1.000000
v -5.015733 -1.000000 1.000000
v -5.015733 1.000000 1.000000
v -5.015733 -1.000000 -1.000000
v -5.015733 1.000000 -1.000000
vt 0.375000 0.000000
vt 0.625000 0.000000
vt 0.625000 0.250000
vt 0.375000 0.250000
vt 0.625000 0.500000
vt 0.375000 0.500000
vt 0.625000 0.750000
vt 0.375000 0.750000
vt 0.625000 1.000000
vt 0.375000 1.000000
vt 0.125000 0.500000
vt 0.125000 0.750000
vt 0.875000 0.500000
vt 0.875000 0.750000
vn -0.5774 -0.5774 0.5774
vn -0.5774 0.5774 0.5774
vn -0.5774 0.5774 -0.5774
vn -0.5774 -0.5774 -0.5774
vn 0.5774 0.5774 -0.5774
vn 0.5774 -0.5774 -0.5774
vn 0.5774 0.5774 0.5774
vn 0.5774 -0.5774 0.5774
usemtl Material.008
s 1
f 57/99/57 58/100/58 60/101/59 59/102/60
f 59/102/60 60/101/59 64/103/61 63/104/62
f 63/104/62 64/103/61 62/105/63 61/106/64
f 61/106/64 62/105/63 58/107/58 57/108/57
f 59/109/60 63/104/62 61/106/64 57/110/57
f 64/103/61 60/111/59 58/112/58 62/105/63
o Cube.008_Cube.009
v -8.985170 -1.000000 1.000000
v -8.985170 1.000000 1.000000
v -8.985170 -1.000000 -1.000000
v -8.985170 1.000000 -1.000000
v -6.985170 -1.000000 1.000000
v -6.985170 1.000000 1.000000
v -6.985170 -1.000000 -1.000000
v -6.985170 1.000000 -1.000000
vt 0.375000 0.000000
vt 0.625000 0.000000
vt 0.625000 0.250000
vt 0.375000 0.250000
vt 0.625000 0.500000
vt 0.375000 0.500000
vt 0.625000 0.750000
vt 0.375000 0.750000
vt 0.625000 1.000000
vt 0.375000 1.000000
vt 0.125000 0.500000
vt 0.125000 0.750000
vt 0.875000 0.500000
vt 0.875000 0.750000
vn -0.5774 -0.5774 0.5774
vn -0.5774 0.5774 0.5774
vn -0.5774 0.5774 -0.5774
vn -0.5774 -0.5774 -0.5774
vn 0.5774 0.5774 -0.5774
vn 0.5774 -0.5774 -0.5774
vn 0.5774 0.5774 0.5774
vn 0.5774 -0.5774 0.5774
usemtl Material.009
s 1
f 65/113/65 66/114/66 68/115/67 67/116/68
f 67/116/68 68/115/67 72/117/69 71/118/70
f 71/118/70 72/117/69 70/119/71 69/120/72
f 69/120/72 70/119/71 66/121/66 65/122/65
f 67/123/68 71/118/70 69/120/72 65/124/65
f 72/117/69 68/125/67 66/126/66 70/119/71
